<?xml version="1.0" encoding="UTF-8" standalone="no"?>
<svg
   xmlns:dc="http://purl.org/dc/elements/1.1/"
   xmlns:cc="http://creativecommons.org/ns#"
   xmlns:rdf="http://www.w3.org/1999/02/22-rdf-syntax-ns#"
   xmlns:svg="http://www.w3.org/2000/svg"
   xmlns="http://www.w3.org/2000/svg"
   xmlns:xlink="http://www.w3.org/1999/xlink"
   xmlns:sodipodi="http://sodipodi.sourceforge.net/DTD/sodipodi-0.dtd"
   xmlns:inkscape="http://www.inkscape.org/namespaces/inkscape"
   width="210mm"
   height="297mm"
   viewBox="0 0 210 297"
   version="1.1"
   id="svg839"
   sodipodi:docname="cnn-pipeline.svg"
   inkscape:version="1.0.2 (e86c8708, 2021-01-15)"
   inkscape:export-filename="/Users/ejmastnak/Documents/Dropbox/academics/fmf-local/fmf-summer-3/seminar/figures/test.png"
   inkscape:export-xdpi="200"
   inkscape:export-ydpi="200">
  <defs
     id="defs833">
    <marker
       style="overflow:visible;"
       id="marker2574"
       refX="0.0"
       refY="0.0"
       orient="auto"
       inkscape:stockid="Arrow2Mend"
       inkscape:isstock="true">
      <path
         transform="scale(0.6) rotate(180) translate(0,0)"
         d="M 8.7185878,4.0337352 L -2.2072895,0.016013256 L 8.7185884,-4.0017078 C 6.9730900,-1.6296469 6.9831476,1.6157441 8.7185878,4.0337352 z "
         style="fill-rule:evenodd;stroke-width:0.625;stroke-linejoin:round;stroke:#000000;stroke-opacity:1;fill:#000000;fill-opacity:1"
         id="path2572" />
    </marker>
    <rect
       x="209.55"
       y="118.79792"
       width="15.345833"
       height="12.964583"
       id="rect71" />
    <rect
       x="196.37638"
       y="130.07218"
       width="36.231804"
       height="26.811535"
       id="rect1226" />
    <marker
       style="overflow:visible;"
       id="marker2377"
       refX="0.0"
       refY="0.0"
       orient="auto"
       inkscape:stockid="Arrow2Lend"
       inkscape:isstock="true">
      <path
         transform="scale(1.1) rotate(180) translate(1,0)"
         d="M 8.7185878,4.0337352 L -2.2072895,0.016013256 L 8.7185884,-4.0017078 C 6.9730900,-1.6296469 6.9831476,1.6157441 8.7185878,4.0337352 z "
         style="fill-rule:evenodd;stroke-width:0.625;stroke-linejoin:round;stroke:#000000;stroke-opacity:1;fill:#000000;fill-opacity:1"
         id="path2375" />
    </marker>
    <marker
       style="overflow:visible;"
       id="Arrow1Mend"
       refX="0.0"
       refY="0.0"
       orient="auto"
       inkscape:stockid="Arrow1Mend"
       inkscape:isstock="true">
      <path
         transform="scale(0.4) rotate(180) translate(10,0)"
         style="fill-rule:evenodd;stroke:#000000;stroke-width:1pt;stroke-opacity:1;fill:#000000;fill-opacity:1"
         d="M 0.0,0.0 L 5.0,-5.0 L -12.5,0.0 L 5.0,5.0 L 0.0,0.0 z "
         id="path907" />
    </marker>
    <marker
       style="overflow:visible;"
       id="marker2032"
       refX="0.0"
       refY="0.0"
       orient="auto"
       inkscape:stockid="Arrow1Lend"
       inkscape:isstock="true">
      <path
         transform="scale(0.8) rotate(180) translate(12.5,0)"
         style="fill-rule:evenodd;stroke:#000000;stroke-width:1pt;stroke-opacity:1;fill:#000000;fill-opacity:1"
         d="M 0.0,0.0 L 5.0,-5.0 L -12.5,0.0 L 5.0,5.0 L 0.0,0.0 z "
         id="path2030" />
    </marker>
    <marker
       style="overflow:visible"
       id="Arrow1Lstart"
       refX="0.0"
       refY="0.0"
       orient="auto"
       inkscape:stockid="Arrow1Lstart"
       inkscape:isstock="true">
      <path
         transform="scale(0.8) translate(12.5,0)"
         style="fill-rule:evenodd;stroke:#000000;stroke-width:1pt;stroke-opacity:1;fill:#000000;fill-opacity:1"
         d="M 0.0,0.0 L 5.0,-5.0 L -12.5,0.0 L 5.0,5.0 L 0.0,0.0 z "
         id="path898" />
    </marker>
    <marker
       style="overflow:visible;"
       id="marker1888"
       refX="0.0"
       refY="0.0"
       orient="auto"
       inkscape:stockid="Arrow2Lend"
       inkscape:isstock="true">
      <path
         transform="scale(1.1) rotate(180) translate(1,0)"
         d="M 8.7185878,4.0337352 L -2.2072895,0.016013256 L 8.7185884,-4.0017078 C 6.9730900,-1.6296469 6.9831476,1.6157441 8.7185878,4.0337352 z "
         style="fill-rule:evenodd;stroke-width:0.625;stroke-linejoin:round;stroke:#000000;stroke-opacity:1;fill:#000000;fill-opacity:1"
         id="path1886" />
    </marker>
    <marker
       style="overflow:visible;"
       id="marker1728"
       refX="0.0"
       refY="0.0"
       orient="auto"
       inkscape:stockid="Arrow2Mend"
       inkscape:isstock="true"
       inkscape:collect="always">
      <path
         transform="scale(0.6) rotate(180) translate(0,0)"
         d="M 8.7185878,4.0337352 L -2.2072895,0.016013256 L 8.7185884,-4.0017078 C 6.9730900,-1.6296469 6.9831476,1.6157441 8.7185878,4.0337352 z "
         style="fill-rule:evenodd;stroke-width:0.625;stroke-linejoin:round;stroke:#000000;stroke-opacity:1;fill:#000000;fill-opacity:1"
         id="path1726" />
    </marker>
    <marker
       style="overflow:visible"
       id="TriangleOutL"
       refX="0.0"
       refY="0.0"
       orient="auto"
       inkscape:stockid="TriangleOutL"
       inkscape:isstock="true">
      <path
         transform="scale(0.8)"
         style="fill-rule:evenodd;stroke:#000000;stroke-width:1pt;stroke-opacity:1;fill:#000000;fill-opacity:1"
         d="M 5.77,0.0 L -2.88,5.0 L -2.88,-5.0 L 5.77,0.0 z "
         id="path1040" />
    </marker>
    <marker
       style="overflow:visible"
       id="EmptyTriangleOutL"
       refX="0.0"
       refY="0.0"
       orient="auto"
       inkscape:stockid="EmptyTriangleOutL"
       inkscape:isstock="true">
      <path
         transform="scale(0.8) translate(-6,0)"
         style="fill-rule:evenodd;fill:#ffffff;stroke:#000000;stroke-width:1pt;stroke-opacity:1"
         d="M 5.77,0.0 L -2.88,5.0 L -2.88,-5.0 L 5.77,0.0 z "
         id="path1058" />
    </marker>
    <marker
       style="overflow:visible;"
       id="marker1552"
       refX="0.0"
       refY="0.0"
       orient="auto"
       inkscape:stockid="Arrow2Lend"
       inkscape:isstock="true">
      <path
         transform="scale(1.1) rotate(180) translate(1,0)"
         d="M 8.7185878,4.0337352 L -2.2072895,0.016013256 L 8.7185884,-4.0017078 C 6.9730900,-1.6296469 6.9831476,1.6157441 8.7185878,4.0337352 z "
         style="fill-rule:evenodd;stroke-width:0.625;stroke-linejoin:round;stroke:#000000;stroke-opacity:1;fill:#000000;fill-opacity:1"
         id="path1550" />
    </marker>
    <marker
       style="overflow:visible;"
       id="marker1512"
       refX="0.0"
       refY="0.0"
       orient="auto"
       inkscape:stockid="Arrow1Lend"
       inkscape:isstock="true">
      <path
         transform="scale(0.8) rotate(180) translate(12.5,0)"
         style="fill-rule:evenodd;stroke:#000000;stroke-width:1pt;stroke-opacity:1;fill:#000000;fill-opacity:1"
         d="M 0.0,0.0 L 5.0,-5.0 L -12.5,0.0 L 5.0,5.0 L 0.0,0.0 z "
         id="path1510" />
    </marker>
    <marker
       style="overflow:visible;"
       id="Arrow2Mend"
       refX="0.0"
       refY="0.0"
       orient="auto"
       inkscape:stockid="Arrow2Mend"
       inkscape:isstock="true">
      <path
         transform="scale(0.6) rotate(180) translate(0,0)"
         d="M 8.7185878,4.0337352 L -2.2072895,0.016013256 L 8.7185884,-4.0017078 C 6.9730900,-1.6296469 6.9831476,1.6157441 8.7185878,4.0337352 z "
         style="fill-rule:evenodd;stroke-width:0.625;stroke-linejoin:round;stroke:#000000;stroke-opacity:1;fill:#000000;fill-opacity:1"
         id="path925" />
    </marker>
    <marker
       style="overflow:visible;"
       id="Arrow2Lend"
       refX="0.0"
       refY="0.0"
       orient="auto"
       inkscape:stockid="Arrow2Lend"
       inkscape:isstock="true">
      <path
         transform="scale(1.1) rotate(180) translate(1,0)"
         d="M 8.7185878,4.0337352 L -2.2072895,0.016013256 L 8.7185884,-4.0017078 C 6.9730900,-1.6296469 6.9831476,1.6157441 8.7185878,4.0337352 z "
         style="fill-rule:evenodd;stroke-width:0.625;stroke-linejoin:round;stroke:#000000;stroke-opacity:1;fill:#000000;fill-opacity:1"
         id="path919" />
    </marker>
    <marker
       style="overflow:visible;"
       id="Arrow1Lend"
       refX="0.0"
       refY="0.0"
       orient="auto"
       inkscape:stockid="Arrow1Lend"
       inkscape:isstock="true">
      <path
         transform="scale(0.8) rotate(180) translate(12.5,0)"
         style="fill-rule:evenodd;stroke:#000000;stroke-width:1pt;stroke-opacity:1;fill:#000000;fill-opacity:1"
         d="M 0.0,0.0 L 5.0,-5.0 L -12.5,0.0 L 5.0,5.0 L 0.0,0.0 z "
         id="path901" />
    </marker>
    <rect
       x="42.169822"
       y="84.688155"
       width="70.706135"
       height="14.732506"
       id="rect970" />
    <rect
       x="40.775779"
       y="85.385177"
       width="88.521775"
       height="13.940438"
       id="rect838" />
    <inkscape:path-effect
       effect="fillet_chamfer"
       id="path-effect832"
       is_visible="false"
       lpeversion="1"
       satellites_param="F,0,0,1,0,0,0,1 @ F,0,0,1,0,0,0,1 @ F,0,0,1,0,0,0,1 @ F,0,0,1,0,0,0,1"
       unit="px"
       method="auto"
       mode="F"
       radius="30"
       chamfer_steps="1"
       flexible="false"
       use_knot_distance="true"
       apply_no_radius="true"
       apply_with_radius="true"
       only_selected="false"
       hide_knots="false" />
    <rect
       style="fill:#e6e6e6;stroke-width:2.42384"
       id="rect886-7"
       width="60.587437"
       height="25.35219"
       x="111.18465"
       y="66.702682"
       ry="11.137836" />
    <marker
       style="overflow:visible"
       id="marker2377-1"
       refX="0"
       refY="0"
       orient="auto"
       inkscape:stockid="Arrow2Lend"
       inkscape:isstock="true">
      <path
         transform="matrix(-1.1,0,0,-1.1,-1.1,0)"
         d="M 8.7185878,4.0337352 -2.2072895,0.01601326 8.7185884,-4.0017078 c -1.7454984,2.3720609 -1.7354408,5.6174519 -6e-7,8.035443 z"
         style="fill:#000000;fill-opacity:1;fill-rule:evenodd;stroke:#000000;stroke-width:0.625;stroke-linejoin:round;stroke-opacity:1"
         id="path2375-0" />
    </marker>
    <marker
       style="overflow:visible"
       id="marker2377-19"
       refX="0"
       refY="0"
       orient="auto"
       inkscape:stockid="Arrow2Lend"
       inkscape:isstock="true">
      <path
         transform="matrix(-1.1,0,0,-1.1,-1.1,0)"
         d="M 8.7185878,4.0337352 -2.2072895,0.01601326 8.7185884,-4.0017078 c -1.7454984,2.3720609 -1.7354408,5.6174519 -6e-7,8.035443 z"
         style="fill:#000000;fill-opacity:1;fill-rule:evenodd;stroke:#000000;stroke-width:0.625;stroke-linejoin:round;stroke-opacity:1"
         id="path2375-8" />
    </marker>
    <clipPath
       clipPathUnits="userSpaceOnUse"
       id="clipPath1774">
      <rect
         style="fill:#e6e6e6;stroke-width:0.75"
         id="rect1776"
         width="436.69565"
         height="335.58261"
         x="77.204369"
         y="47.700001"
         ry="0"
         rx="0" />
    </clipPath>
    <clipPath
       id="p7ff5b81e1d">
      <rect
         height="345.60001"
         width="446.39999"
         x="72"
         y="43.200001"
         id="rect1200" />
    </clipPath>
    <path
       d="M 0,0 V -4"
       id="mcb557df647"
       style="stroke:#000000;stroke-width:0.5;stroke-linecap:butt" />
    <path
       d="M 0,0 V 4"
       id="mdad270ee8e"
       style="stroke:#000000;stroke-width:0.5;stroke-linecap:butt" />
    <path
       d="m 31.7812,66.4062 q -7.6093,0 -11.4531,-7.5 Q 16.5,51.4219 16.5,36.375 q 0,-14.9844 3.8281,-22.4844 3.8438,-7.49998 11.4531,-7.49998 7.6719,0 11.5,7.49998 3.8438,7.5 3.8438,22.4844 0,15.0469 -3.8438,22.5312 -3.8281,7.5 -11.5,7.5 m 0,7.8126 q 12.2657,0 18.7344,-9.7032 6.4688,-9.6875 6.4688,-28.1406 0,-18.4062 -6.4688,-28.10938 -6.4687,-9.6875 -18.7344,-9.6875 -12.25,0 -18.7187,9.6875 -6.46875,9.70318 -6.46875,28.10938 0,18.4531 6.46875,28.1406 6.4687,9.7032 18.7187,9.7032"
       id="BitstreamVeraSans-Roman-30" />
    <path
       d="M 19.1875,8.29688 H 53.6094 V 0 H 7.32812 V 8.29688 Q 12.9375,14.1094 22.625,23.8906 q 9.7031,9.7969 12.1875,12.6406 4.7344,5.3126 6.6094,9 1.8906,3.6876 1.8906,7.25 0,5.8126 -4.0781,9.4688 -4.0782,3.6719 -10.625,3.6719 -4.6406,0 -9.7969,-1.6094 -5.1406,-1.6094 -11,-4.8906 v 9.9687 q 5.9531,2.3906 11.125,3.6094 5.1875,1.2188 9.4844,1.2188 11.3281,0 18.0625,-5.6719 6.7344,-5.6563 6.7344,-15.125 0,-4.5 -1.6876,-8.5313 Q 49.8594,40.875 45.4062,35.4062 44.1875,33.9844 37.6406,27.2188 31.1094,20.4531 19.1875,8.29688"
       id="BitstreamVeraSans-Roman-32" />
    <path
       d="M 37.7969,64.3125 12.8906,25.3906 h 24.9063 z m -2.5938,8.5937 H 47.6094 V 25.3906 H 58.0156 V 17.1875 H 47.6094 V 0 H 37.7969 V 17.1875 H 4.89062 v 9.5156 z"
       id="BitstreamVeraSans-Roman-34" />
    <path
       d="m 33.0156,40.375 q -6.6406,0 -10.5312,-4.5469 -3.875,-4.5312 -3.875,-12.4375 0,-7.8594 3.875,-12.4375 3.8906,-4.56248 10.5312,-4.56248 6.6406,0 10.5156,4.56248 3.875,4.5781 3.875,12.4375 0,7.9063 -3.875,12.4375 -3.875,4.5469 -10.5156,4.5469 m 19.5782,30.9219 v -8.9844 q -3.7188,1.75 -7.5,2.6719 -3.7813,0.9375 -7.5,0.9375 -9.7657,0 -14.9219,-6.5938 -5.1407,-6.5937 -5.875,-19.9219 2.875,4.25 7.2187,6.5157 4.3594,2.2656 9.5782,2.2656 10.9843,0 17.3593,-6.6719 6.375,-6.6562 6.375,-18.125 0,-11.2344 -6.6406,-18.03122 -6.6406,-6.78126 -17.6719,-6.78126 -12.6562,0 -19.3437,9.6875 -6.68752,9.70318 -6.68752,28.10938 0,17.2812 8.20312,27.5625 8.2031,10.2813 22.0156,10.2813 3.7188,0 7.5,-0.7344 3.7813,-0.7344 7.8907,-2.1875"
       id="BitstreamVeraSans-Roman-36" />
    <path
       d="m 31.7812,34.625 q -7.0312,0 -11.0624,-3.7656 -4.0157,-3.7656 -4.0157,-10.3438 0,-6.5937 4.0157,-10.3594 4.0312,-3.76558 11.0624,-3.76558 7.0313,0 11.0782,3.78128 4.0625,3.7969 4.0625,10.3437 0,6.5782 -4.0313,10.3438 -4.0156,3.7656 -11.1094,3.7656 m -9.8593,4.1875 Q 15.5781,40.375 12.0312,44.7188 8.5,49.0781 8.5,55.3281 q 0,8.7344 6.2188,13.8125 6.2343,5.0782 17.0624,5.0782 10.8907,0 17.0938,-5.0782 6.2031,-5.0781 6.2031,-13.8125 0,-6.25 -3.5469,-10.6093 Q 48,40.375 41.7031,38.8125 q 7.125,-1.6563 11.0938,-6.5 3.9843,-4.8281 3.9843,-11.7969 0,-10.60935 -6.4687,-16.28122 -6.4687,-5.65626 -18.5313,-5.65626 -12.0468,0 -18.5312,5.65626 -6.46875,5.67187 -6.46875,16.28122 0,6.9688 3.99995,11.7969 4.0157,4.8437 11.1407,6.5 m -3.6094,15.5781 q 0,-5.6562 3.5313,-8.8281 3.5468,-3.1719 9.9374,-3.1719 6.3594,0 9.9376,3.1719 3.5937,3.1719 3.5937,8.8281 0,5.6719 -3.5937,8.8438 -3.5782,3.1718 -9.9376,3.1718 -6.3906,0 -9.9374,-3.1718 -3.5313,-3.1719 -3.5313,-8.8438"
       id="BitstreamVeraSans-Roman-38" />
    <path
       d="M 12.4062,8.29688 H 28.5156 V 63.9219 L 10.9844,60.4062 v 8.9844 l 17.4375,3.5156 h 9.8593 V 8.29688 H 54.3906 V 0 H 12.4062 Z"
       id="BitstreamVeraSans-Roman-31" />
    <path
       d="M 0,0 H 4"
       id="mc8fcea1516"
       style="stroke:#000000;stroke-width:0.5;stroke-linecap:butt" />
    <path
       d="M 0,0 H -4"
       id="m0d5b0a6425"
       style="stroke:#000000;stroke-width:0.5;stroke-linecap:butt" />
    <filter
       style="color-interpolation-filters:sRGB;"
       inkscape:label="Greyscale"
       id="filter2354">
      <feColorMatrix
         values="0.21 -10 0.072 0 0 0.21 -10 0.072 0 0 0.21 -10 0.072 0 0 0 0 0 1 0 "
         id="feColorMatrix2352"
         result="fbSourceGraphic" />
      <feColorMatrix
         result="fbSourceGraphicAlpha"
         in="fbSourceGraphic"
         values="0 0 0 -1 0 0 0 0 -1 0 0 0 0 -1 0 0 0 0 1 0"
         id="feColorMatrix2356" />
      <feColorMatrix
         id="feColorMatrix2358"
         values="0.21 0.151976 0.212766 0 0 0.21 0.151976 0.212766 0 0 0.21 0.151976 0.212766 0 0 0 0 0 1 0 "
         in="fbSourceGraphic"
         result="fbSourceGraphic" />
      <feColorMatrix
         result="fbSourceGraphicAlpha"
         in="fbSourceGraphic"
         values="0 0 0 -1 0 0 0 0 -1 0 0 0 0 -1 0 0 0 0 1 0"
         id="feColorMatrix2360" />
      <feColorMatrix
         id="feColorMatrix2362"
         values="0.21 0.151976 0.212766 0 0 0.21 0.151976 0.212766 0 0 0.21 0.151976 0.212766 0 0 0 0 0 1 0 "
         in="fbSourceGraphic" />
    </filter>
    <rect
       x="209.55"
       y="118.79792"
       width="15.345833"
       height="12.964583"
       id="rect71-8" />
    <rect
       x="209.55"
       y="118.79792"
       width="15.345833"
       height="12.964583"
       id="rect2373" />
    <clipPath
       clipPathUnits="userSpaceOnUse"
       id="clipPath2412">
      <ellipse
         style="fill:#f2f2f2;stroke:#000000;stroke-width:7.39672;stroke-miterlimit:4;stroke-dasharray:none;stroke-dashoffset:0;stroke-opacity:1"
         id="ellipse2414"
         cx="290.4679"
         cy="226.15878"
         rx="187.60524"
         ry="191.60057" />
    </clipPath>
    <clipPath
       clipPathUnits="userSpaceOnUse"
       id="clipPath2448">
      <ellipse
         style="fill:#f2f2f2;fill-opacity:1;stroke-width:3.03782;stroke-miterlimit:4;stroke-dasharray:none;stroke-dashoffset:0"
         id="circle2450"
         cx="296.57742"
         cy="216.69438"
         rx="159.70204"
         ry="163.06984" />
    </clipPath>
    <rect
       x="209.55"
       y="118.79792"
       width="15.345833"
       height="12.964583"
       id="rect71-2" />
    <rect
       x="209.55"
       y="118.79792"
       width="15.345833"
       height="12.964583"
       id="rect2463" />
    <g
       id="id-06ae10b9-f615-4a00-a1fd-52e2809067c8">
      <symbol
         overflow="visible"
         id="id-2a486cfb-7edb-46cb-918b-22edda716556">
        <path
           style="stroke:none"
           d=""
           id="id-0f19458e-ace0-440b-8967-1e29bb99a310" />
      </symbol>
      <symbol
         overflow="visible"
         id="id-2bdd0828-5dfe-4db0-98e9-ddf30e99b9c9">
        <path
           style="stroke:none"
           d="M 0.453125,1.21875 C 0.375,1.5625 0.34375,1.625 -0.09375,1.625 c -0.109375,0 -0.21875,0 -0.21875,0.1875 0,0.078125 0.046875,0.125 0.125,0.125 0.265625,0 0.5625,-0.03125 0.828125,-0.03125 0.34375,0 0.671875,0.03125 1,0.03125 0.046875,0 0.171875,0 0.171875,-0.203125 C 1.8125,1.625 1.71875,1.625 1.578125,1.625 c -0.5,0 -0.5,-0.0625 -0.5,-0.15625 0,-0.125 0.421875,-1.75 0.484375,-2 0.125,0.296875 0.40625,0.640625 0.921875,0.640625 1.15625,0 2.40625,-1.453125 2.40625,-2.921875 0,-0.9375 -0.578125,-1.59375 -1.328125,-1.59375 -0.5,0 -0.984375,0.359375 -1.3125,0.75 -0.09375,-0.546875 -0.53125,-0.75 -0.890625,-0.75 -0.46875,0 -0.65625,0.390625 -0.734375,0.5625 C 0.4375,-3.5 0.3125,-2.90625 0.3125,-2.875 c 0,0.109375 0.09375,0.109375 0.109375,0.109375 0.109375,0 0.109375,-0.015625 0.171875,-0.234375 0.171875,-0.703125 0.375,-1.1875 0.734375,-1.1875 0.171875,0 0.3125,0.078125 0.3125,0.453125 0,0.234375 -0.03125,0.34375 -0.078125,0.515625 z m 1.75,-4.328125 C 2.265625,-3.375 2.546875,-3.65625 2.71875,-3.8125 c 0.359375,-0.296875 0.640625,-0.375 0.8125,-0.375 0.390625,0 0.640625,0.34375 0.640625,0.9375 0,0.59375 -0.328125,1.734375 -0.515625,2.109375 -0.34375,0.703125 -0.8125,1.03125 -1.1875,1.03125 C 1.8125,-0.109375 1.6875,-0.9375 1.6875,-1 c 0,-0.015625 0,-0.03125 0.03125,-0.15625 z m 0,0"
           id="id-6b2f1a80-6bab-48fa-8513-65bd2a5ec6f0" />
      </symbol>
      <symbol
         overflow="visible"
         id="id-caa8c46a-6e58-49f5-83fb-a026522f954f">
        <path
           style="stroke:none"
           d="m 2.03125,-0.015625 c 0,-0.65625 -0.25,-1.046875 -0.640625,-1.046875 -0.328125,0 -0.53125,0.25 -0.53125,0.53125 C 0.859375,-0.265625 1.0625,0 1.390625,0 1.5,0 1.640625,-0.046875 1.734375,-0.125 1.765625,-0.15625 1.78125,-0.15625 1.78125,-0.15625 c 0.015625,0 0.015625,0 0.015625,0.140625 0,0.75 -0.34375,1.34375 -0.671875,1.671875 -0.109375,0.109375 -0.109375,0.125 -0.109375,0.15625 0,0.078125 0.046875,0.109375 0.09375,0.109375 0.109375,0 0.921875,-0.765625 0.921875,-1.9375 z m 0,0"
           id="id-61a1530b-06ff-448a-8cc5-1b500321ff32" />
      </symbol>
      <symbol
         overflow="visible"
         id="id-14ba210f-0e8f-477e-af20-b5ebe1556288">
        <path
           style="stroke:none"
           d="M 4.859375,-2.765625 C 4.921875,-2.9375 4.9375,-3.078125 4.9375,-3.34375 c 0,-0.640625 -0.390625,-1.0625 -1.140625,-1.0625 -0.78125,0 -1.296875,0.515625 -1.546875,0.875 -0.046875,-0.578125 -0.46875,-0.875 -0.921875,-0.875 -0.453125,0 -0.640625,0.390625 -0.734375,0.5625 C 0.421875,-3.5 0.296875,-2.90625 0.296875,-2.875 c 0,0.109375 0.09375,0.109375 0.109375,0.109375 0.109375,0 0.109375,-0.015625 0.171875,-0.234375 0.171875,-0.703125 0.375,-1.1875 0.734375,-1.1875 0.15625,0 0.296875,0.078125 0.296875,0.453125 0,0.21875 -0.03125,0.328125 -0.15625,0.84375 L 0.875,-0.59375 c -0.03125,0.15625 -0.09375,0.390625 -0.09375,0.4375 0,0.171875 0.140625,0.265625 0.296875,0.265625 0.125,0 0.296875,-0.078125 0.375,-0.28125 0,-0.015625 0.125,-0.484375 0.1875,-0.734375 l 0.21875,-0.890625 C 1.90625,-2.03125 1.96875,-2.25 2.03125,-2.46875 2.046875,-2.53125 2.125,-2.859375 2.140625,-2.921875 2.15625,-3.015625 2.46875,-3.5625 2.8125,-3.84375 3.03125,-4 3.34375,-4.1875 3.765625,-4.1875 c 0.4375,0 0.546875,0.34375 0.546875,0.703125 0,0.046875 0,0.21875 -0.109375,0.625 l -1.125,4.578125 c -0.03125,0.125 -0.03125,0.140625 -0.03125,0.171875 0,0.140625 0.109375,0.265625 0.265625,0.265625 0.3125,0 0.390625,-0.296875 0.421875,-0.40625 z m 0,0"
           id="id-d18eb7be-ef6b-465c-bf06-c06a66dcb117" />
      </symbol>
      <symbol
         overflow="visible"
         id="id-a3bf0044-4038-401c-9d61-566592536c05">
        <path
           style="stroke:none"
           d="m 4.359375,-6.671875 c 0,-0.03125 0.03125,-0.140625 0.03125,-0.140625 0,-0.015625 0,-0.109375 -0.125,-0.109375 -0.09375,0 -0.109375,0.03125 -0.15625,0.203125 L 3.53125,-4.421875 c -1.578125,0.0625 -3.046875,1.375 -3.046875,2.734375 0,0.953125 0.703125,1.734375 1.921875,1.8125 C 2.328125,0.421875 2.25,0.75 2.171875,1.0625 c -0.125,0.46875 -0.21875,0.84375 -0.21875,0.875 0,0.09375 0.078125,0.109375 0.125,0.109375 C 2.125,2.046875 2.140625,2.03125 2.171875,2 2.1875,1.984375 2.25,1.75 2.28125,1.609375 L 2.65625,0.125 c 1.609375,-0.0625 3.0625,-1.40625 3.0625,-2.734375 0,-0.796875 -0.53125,-1.703125 -1.921875,-1.8125 z m -1.90625,6.578125 c -0.59375,-0.03125 -1.3125,-0.390625 -1.3125,-1.375 0,-1.203125 0.859375,-2.59375 2.34375,-2.734375 z m 1.28125,-4.109375 c 0.765625,0.046875 1.328125,0.5 1.328125,1.375 0,1.1875 -0.859375,2.609375 -2.34375,2.734375 z m 0,0"
           id="id-02d81dd2-19ae-4dcd-8d0b-8a71b4a9f7b2" />
      </symbol>
      <symbol
         overflow="visible"
         id="id-6b688362-7261-4b0d-b361-3ae409f8c05b">
        <path
           style="stroke:none"
           d="m 1.90625,-0.53125 c 0,-0.28125 -0.234375,-0.53125 -0.515625,-0.53125 -0.296875,0 -0.53125,0.25 -0.53125,0.53125 C 0.859375,-0.234375 1.09375,0 1.390625,0 1.671875,0 1.90625,-0.234375 1.90625,-0.53125 Z m 0,0"
           id="id-9c9b5c9b-06f5-4e8b-9312-c7e2ca4f99a7" />
      </symbol>
      <symbol
         overflow="visible"
         id="id-6a4e0918-4405-47a8-9051-ffcc82c2264e">
        <path
           style="stroke:none"
           d=""
           id="id-b5a1aef1-cf37-4edb-9c87-90acb5785556" />
      </symbol>
      <symbol
         overflow="visible"
         id="id-a2ab567d-ffce-438e-9e72-58f518194e2e">
        <path
           style="stroke:none"
           d="M 5.1875,-4.703125 H 0.484375 l -0.15625,1.59375 h 0.25 C 0.671875,-4.3125 0.875,-4.453125 1.9375,-4.453125 c 0.140625,0 0.34375,0 0.421875,0 0.15625,0.03125 0.15625,0.109375 0.15625,0.265625 v 3.609375 c 0,0.234375 0,0.328125 -0.734375,0.328125 H 1.484375 V 0 c 0.34375,-0.03125 1,-0.03125 1.359375,-0.03125 0.359375,0 1,0 1.34375,0.03125 V -0.25 H 3.890625 c -0.71875,0 -0.71875,-0.09375 -0.71875,-0.328125 V -4.1875 c 0,-0.15625 0,-0.234375 0.15625,-0.265625 0.0625,0 0.265625,0 0.40625,0 0.390625,0 0.6875,0 0.9375,0.125 C 4.984375,-4.125 5.03125,-3.6875 5.03125,-3.65625 l 0.0625,0.546875 h 0.25 z m 0,0"
           id="id-723cc91d-ef24-4079-9983-53807479900c" />
      </symbol>
    </g>
    <g
       id="g5631">
      <symbol
         overflow="visible"
         id="symbol5601">
        <path
           style="stroke:none"
           d=""
           id="path5599" />
      </symbol>
      <symbol
         overflow="visible"
         id="symbol5605">
        <path
           style="stroke:none"
           d="m 0.875,-0.59375 c -0.03125,0.15625 -0.09375,0.390625 -0.09375,0.4375 0,0.171875 0.140625,0.265625 0.296875,0.265625 0.125,0 0.296875,-0.078125 0.375,-0.28125 0,-0.015625 0.125,-0.484375 0.1875,-0.734375 l 0.21875,-0.890625 C 1.90625,-2.03125 1.96875,-2.25 2.03125,-2.46875 c 0.03125,-0.171875 0.109375,-0.46875 0.125,-0.5 0.140625,-0.3125 0.671875,-1.21875 1.625,-1.21875 0.453125,0 0.53125,0.375 0.53125,0.703125 0,0.25 -0.0625,0.53125 -0.140625,0.828125 L 3.890625,-1.5 3.6875,-0.75 c -0.03125,0.203125 -0.125,0.546875 -0.125,0.59375 0,0.171875 0.140625,0.265625 0.28125,0.265625 0.3125,0 0.375,-0.25 0.453125,-0.5625 0.140625,-0.5625 0.515625,-2.015625 0.59375,-2.40625 0.03125,-0.125 0.5625,-1.328125 1.65625,-1.328125 0.421875,0 0.53125,0.34375 0.53125,0.703125 0,0.5625 -0.421875,1.703125 -0.625,2.234375 -0.078125,0.234375 -0.125,0.34375 -0.125,0.546875 0,0.46875 0.34375,0.8125 0.8125,0.8125 0.9375,0 1.3125,-1.453125 1.3125,-1.53125 0,-0.109375 -0.09375,-0.109375 -0.125,-0.109375 -0.09375,0 -0.09375,0.03125 -0.140625,0.1875 -0.15625,0.53125 -0.46875,1.234375 -1.015625,1.234375 -0.171875,0 -0.25,-0.09375 -0.25,-0.328125 0,-0.25 0.09375,-0.484375 0.1875,-0.703125 0.1875,-0.53125 0.609375,-1.625 0.609375,-2.203125 0,-0.640625 -0.40625,-1.0625 -1.15625,-1.0625 -0.734375,0 -1.25,0.4375 -1.625,0.96875 0,-0.125 -0.03125,-0.46875 -0.3125,-0.703125 -0.25,-0.21875 -0.5625,-0.265625 -0.8125,-0.265625 -0.90625,0 -1.390625,0.640625 -1.5625,0.875 -0.046875,-0.578125 -0.46875,-0.875 -0.921875,-0.875 -0.453125,0 -0.640625,0.390625 -0.734375,0.5625 -0.171875,0.359375 -0.296875,0.9375 -0.296875,0.96875 0,0.109375 0.09375,0.109375 0.109375,0.109375 0.109375,0 0.109375,-0.015625 0.171875,-0.234375 0.171875,-0.703125 0.375,-1.1875 0.734375,-1.1875 0.15625,0 0.296875,0.078125 0.296875,0.453125 0,0.21875 -0.03125,0.328125 -0.15625,0.84375 z m 0,0"
           id="path5603" />
      </symbol>
      <symbol
         overflow="visible"
         id="symbol5609">
        <path
           style="stroke:none"
           d="m 2.03125,-0.015625 c 0,-0.65625 -0.25,-1.046875 -0.640625,-1.046875 -0.328125,0 -0.53125,0.25 -0.53125,0.53125 C 0.859375,-0.265625 1.0625,0 1.390625,0 1.5,0 1.640625,-0.046875 1.734375,-0.125 1.765625,-0.15625 1.78125,-0.15625 1.78125,-0.15625 c 0.015625,0 0.015625,0 0.015625,0.140625 0,0.75 -0.34375,1.34375 -0.671875,1.671875 -0.109375,0.109375 -0.109375,0.125 -0.109375,0.15625 0,0.078125 0.046875,0.109375 0.09375,0.109375 0.109375,0 0.921875,-0.765625 0.921875,-1.9375 z m 0,0"
           id="path5607" />
      </symbol>
      <symbol
         overflow="visible"
         id="symbol5613">
        <path
           style="stroke:none"
           d="m 1.90625,-0.53125 c 0,-0.28125 -0.234375,-0.53125 -0.515625,-0.53125 -0.296875,0 -0.53125,0.25 -0.53125,0.53125 C 0.859375,-0.234375 1.09375,0 1.390625,0 1.671875,0 1.90625,-0.234375 1.90625,-0.53125 Z m 0,0"
           id="path5611" />
      </symbol>
      <symbol
         overflow="visible"
         id="symbol5617">
        <path
           style="stroke:none"
           d=""
           id="path5615" />
      </symbol>
      <symbol
         overflow="visible"
         id="symbol5621">
        <path
           style="stroke:none"
           d="M 3.109375,-0.96875 C 3.078125,-1.375 2.84375,-3.078125 1.703125,-3.078125 1.296875,-3.078125 0.9375,-2.84375 0.75,-2.671875 0.328125,-2.28125 0.234375,-1.84375 0.234375,-1.8125 c 0,0.078125 0.09375,0.078125 0.109375,0.078125 0.09375,0 0.109375,-0.015625 0.140625,-0.125 0.140625,-0.40625 0.65625,-0.65625 1.125,-0.65625 1.125,0 1.265625,1.125 1.265625,1.828125 0,0.359375 -0.015625,0.421875 -0.046875,0.5 -0.15625,0.53125 -0.375,1.296875 -0.375,1.515625 0,0.078125 0.03125,0.15625 0.125,0.15625 0.046875,0 0.125,0 0.234375,-0.359375 C 2.90625,0.859375 3.03125,0.34375 3.09375,-0.15625 3.109375,-0.40625 3.5,-1.34375 3.65625,-1.671875 3.75,-1.890625 3.890625,-2.21875 4.21875,-2.828125 4.25,-2.859375 4.265625,-2.890625 4.265625,-2.921875 4.265625,-3 4.171875,-3 4.140625,-3 4.125,-3 4.0625,-3 4.046875,-2.96875 c -0.09375,0.140625 -0.625,1.140625 -0.9375,2 z m 0,0"
           id="path5619" />
      </symbol>
      <symbol
         overflow="visible"
         id="symbol5625">
        <path
           style="stroke:none"
           d="M 0.828125,-0.953125 C 0.90625,-0.5 1.125,0.078125 1.71875,0.078125 1.9375,0.078125 2.1875,0 2.453125,-0.171875 2.5625,-0.234375 2.921875,-0.5 2.921875,-0.578125 c 0,-0.046875 -0.046875,-0.125 -0.109375,-0.125 -0.03125,0 -0.046875,0 -0.15625,0.09375 -0.296875,0.265625 -0.609375,0.5 -0.921875,0.5 C 1.25,-0.109375 1.25,-0.921875 1.25,-1.0625 c 0,-0.09375 0,-0.09375 0.015625,-0.234375 0.015625,-0.0625 0.015625,-0.078125 0.09375,-0.15625 0.375,-0.359375 1.703125,-1.640625 1.703125,-2.84375 0,-0.109375 0,-0.609375 -0.46875,-0.609375 C 2.015625,-4.90625 1.546875,-4 1.4375,-3.796875 1.140625,-3.203125 0.96875,-2.640625 0.90625,-2.28125 0.796875,-1.8125 0.796875,-1.578125 0.796875,-1.234375 0.75,-1.1875 0.34375,-0.828125 0.28125,-0.78125 c -0.109375,0.109375 -0.125,0.109375 -0.125,0.15625 0,0.046875 0.0625,0.125 0.125,0.125 0.046875,0 0.234375,-0.171875 0.28125,-0.21875 z m 0.5,-0.796875 C 1.453125,-2.453125 2,-4.703125 2.59375,-4.703125 c 0.15625,0 0.25,0.109375 0.25,0.359375 0,0.078125 0,0.703125 -0.609375,1.5625 C 1.875,-2.28125 1.5,-1.90625 1.328125,-1.75 Z m 0,0"
           id="path5623" />
      </symbol>
      <symbol
         overflow="visible"
         id="symbol5629">
        <path
           style="stroke:none"
           d="m 1.75,-2.875 c 0,-0.03125 0.015625,-0.0625 0.015625,-0.09375 0,-0.015625 0,-0.109375 -0.109375,-0.109375 -0.015625,0 -0.40625,0.046875 -0.453125,0.046875 C 1.0625,-3.03125 0.9375,-3.015625 0.8125,-3 c -0.109375,0 -0.203125,0.015625 -0.203125,0.15625 0,0.09375 0.09375,0.09375 0.1875,0.09375 0.328125,0 0.328125,0.046875 0.328125,0.109375 0,0.046875 -0.03125,0.1875 -0.0625,0.265625 L 0.71875,-0.96875 C 0.546875,-0.265625 0.515625,-0.125 0.515625,-0.09375 0.515625,0 0.609375,0 0.640625,0 H 0.75 C 1.375,-0.09375 2.265625,-0.421875 3,-1.09375 c 0.953125,-0.84375 1.09375,-1.75 1.09375,-1.75 0,-0.125 -0.09375,-0.234375 -0.234375,-0.234375 -0.25,0 -0.296875,0.203125 -0.359375,0.390625 -0.28125,1 -1.21875,2.0625 -2.40625,2.40625 z m 0,0"
           id="path5627" />
      </symbol>
    </g>
  </defs>
  <sodipodi:namedview
     id="base"
     pagecolor="#ffffff"
     bordercolor="#666666"
     borderopacity="1.0"
     inkscape:pageopacity="0.0"
     inkscape:pageshadow="2"
     inkscape:zoom="0.75484122"
     inkscape:cx="73.21983"
     inkscape:cy="181.42882"
     inkscape:document-units="px"
     inkscape:current-layer="layer1"
     inkscape:document-rotation="0"
     showgrid="false"
     inkscape:showpageshadow="false"
     inkscape:window-width="1920"
     inkscape:window-height="1080"
     inkscape:window-x="0"
     inkscape:window-y="0"
     inkscape:window-maximized="0"
     borderlayer="true"
     showborder="false" />
  <metadata
     id="metadata836">
    <rdf:RDF>
      <cc:Work
         rdf:about="">
        <dc:format>image/svg+xml</dc:format>
        <dc:type
           rdf:resource="http://purl.org/dc/dcmitype/StillImage" />
        <dc:title />
      </cc:Work>
    </rdf:RDF>
  </metadata>
  <g
     inkscape:label="Layer 1"
     inkscape:groupmode="layer"
     id="layer1">
    <text
       xml:space="preserve"
       style="font-size:10.5833px;line-height:1.25;font-family:'Latin Modern Roman';-inkscape-font-specification:'Latin Modern Roman, Normal';stroke-width:0.264583"
       x="51.563782"
       y="106.56515"
       id="text846"><tspan
         sodipodi:role="line"
         id="tspan844"
         x="51.563782"
         y="106.56515"
         style="stroke-width:0.264583" /></text>
    <text
       xml:space="preserve"
       style="font-size:10.5833px;line-height:1.25;font-family:'Latin Modern Roman';-inkscape-font-specification:'Latin Modern Roman, Normal';stroke-width:0.264583"
       x="141.3707"
       y="65.74382"
       id="text894"><tspan
         sodipodi:role="line"
         id="tspan892"
         x="141.3707"
         y="65.74382"
         style="stroke-width:0.264583" /></text>
    <path
       style="fill:none;stroke:#000000;stroke-width:0.79375;stroke-linecap:butt;stroke-linejoin:miter;stroke-miterlimit:4;stroke-dasharray:none;stroke-opacity:1;marker-end:url(#marker1728)"
       d="m 51.651825,74.352142 23.63699,0.137212"
       id="path2373"
       sodipodi:nodetypes="cc" />
    <rect
       style="fill:#f9ac80;fill-opacity:1;stroke:#000000;stroke-width:0.442695;stroke-miterlimit:4;stroke-dasharray:none;stroke-opacity:1"
       id="rect2341"
       width="50.686703"
       height="30.798922"
       x="-1.393378"
       y="59.026653"
       ry="6.4288244" />
    <text
       xml:space="preserve"
       style="font-size:9.87778px;line-height:1.25;font-family:'Latin Modern Roman';-inkscape-font-specification:'Latin Modern Roman, Normal';white-space:pre;stroke-width:0.264583"
       x="23.915991"
       y="71.367538"
       id="text890-3"><tspan
         style="font-size:9.87778px;text-align:center;text-anchor:middle;stroke-width:0.264583"
         id="tspan912">Detector
data</tspan></text>
    <rect
       style="fill:#e6e6e6;stroke-width:1.88837"
       id="rect81"
       width="36.774925"
       height="25.352188"
       x="107.30293"
       y="61.750019"
       ry="11.137836" />
    <g
       id="g4998">
      <ellipse
         style="fill:#f2f2f2;stroke:#000000;stroke-width:0.396875;stroke-miterlimit:4;stroke-dasharray:none;stroke-dashoffset:0;stroke-opacity:1"
         id="path185"
         cx="191.45456"
         cy="55.674953"
         rx="12.97723"
         ry="12.973451" />
      <text
         xml:space="preserve"
         id="text69"
         style="font-size:10.58329999999999949px;line-height:1.25;font-family:'Latin Modern Roman';-inkscape-font-specification:'Latin Modern Roman, Normal';white-space:pre;shape-inside:url(#rect71);"
         transform="matrix(1.3248978,0,0,1.3242415,-91.429966,-109.90217)"><tspan
           x="209.55078"
           y="128.65188"><tspan>H</tspan></tspan></text>
    </g>
    <g
       id="g4992">
      <g
         id="g4869">
        <ellipse
           style="fill:#f2f2f2;stroke:#000000;stroke-width:0.396875;stroke-miterlimit:4;stroke-dasharray:none;stroke-dashoffset:0;stroke-opacity:1"
           id="path185-7"
           cx="191.45457"
           cy="95.988449"
           rx="12.977187"
           ry="12.976024" />
      </g>
      <g
         id="figure_1"
         transform="matrix(0.07419965,0,0,0.07264589,169.44864,80.24649)"
         clip-path="url(#clipPath2448)"
         style="fill:none;fill-opacity:1;stroke-linecap:square;stroke-linejoin:round;filter:url(#filter2354)">
        <g
           id="patch_1"
           style="fill:none;fill-opacity:1">
          <path
             d="M 0,432 H 576 V 0 H 0 Z"
             style="fill:none;fill-opacity:1"
             id="path1011" />
        </g>
        <g
           id="axes_1"
           style="fill:none;fill-opacity:1">
          <g
             id="patch_2"
             style="fill:none;fill-opacity:1">
            <path
               d="M 72,388.8 H 518.4 V 43.2 H 72 Z"
               style="fill:none;fill-opacity:1"
               id="path1014" />
          </g>
          <g
             id="line2d_1"
             style="fill:none;fill-opacity:1">
            <path
               clip-path="url(#p7ff5b81e1d)"
               d="m 72,163.547 0.4464,22.105 0.4464,10.103 0.4464,-95.471 0.4464,119.961 0.4464,12.192 0.4464,-12.281 0.4464,152.852 0.4464,-185.504 0.4464,84.92 0.4464,-62.236 0.4464,69.444 0.4464,-123.277 0.8928,126.415 0.4464,-119.066 0.4464,28.578 0.4464,-24.189 0.8928,72.343 0.4464,38.878 0.4464,-45.08 0.4464,-87.841 0.4464,105.396 0.4464,-42.423 0.4464,12.798 0.4464,26.636 0.4464,-85.216 0.4464,1.829 0.4464,76.66 0.4464,-42.738 0.4464,33.607 0.4464,-48.386 0.4464,-3.69 0.4464,15.04 0.4464,38.395 0.4464,-76.654 0.4464,85.627 0.4464,-71.299 0.4464,37.519 0.4464,-51.523 0.4464,4.248 0.4464,43.584 0.4464,-72.972 0.4464,112.503 0.4464,-76.865 0.4464,23.609 0.4464,50.348 0.4464,3.643 0.4464,-59.956 0.4464,17.075 0.4464,54.959 0.4464,-74.809 0.4464,81.844 0.4464,-10.437 0.4464,-40.576 0.4464,5.981 0.4464,-40.638 0.4464,-3.36 0.4464,28.123 0.4464,-74.566 0.4464,49.117 0.4464,78.467 0.4462,-31.467 0.447,28.444 0.446,-30.338 0.446,25.855 0.447,-29.001 0.446,-40.87 0.447,-28.643 0.446,64.382 0.446,-118.7791 0.447,183.6941 0.446,58.853 0.447,-60.36 0.446,-38.468 0.446,-17.919 0.447,-3.18 0.446,3.265 0.447,29.032 0.446,-38.171 0.446,-77.887 0.447,36.67 0.446,95.509 0.447,-39.605 0.446,-10.903 0.446,36.092 0.447,2.378 0.446,-44.622 0.447,-23.68 0.446,6.09 0.446,37.962 0.447,28.391 0.446,-2.112 0.447,8.366 0.892,-39.193 0.447,5.219 0.446,-20.613 0.447,64.895 0.446,-31.302 0.446,-55.892 0.447,26.839 0.446,-31.355 0.447,54.72 0.446,0.477 0.446,-19.757 0.447,18.058 0.446,11.216 0.447,-81.458 0.446,48.232 0.446,32.566 0.447,-23.758 0.446,66.605 0.447,-71.982 0.446,1.778 0.446,24.721 0.447,-2.659 0.446,11.629 0.447,-42.355 0.446,77.907 0.446,-86.711 0.893,22.41 0.447,4.524 0.446,-32.263 0.446,12.951 0.447,40.864 0.446,12.857 0.447,-78.137 0.446,93.94 0.446,-29.87 0.447,-107.907 0.446,76.183 0.447,-101.618 0.446,149.51 0.446,-44.27 0.447,70.396 0.446,-47.926 0.447,-111.794 0.446,181.586 0.446,-142.683 0.447,-20.792 0.446,28.099 0.447,91.685 0.446,-71.44 0.446,82.501 0.447,-122.783 0.446,-0.075 0.447,125.301 0.446,-52.344 0.446,8.937 0.447,77.237 0.446,-123.97 0.447,54.846 0.446,-80.347 0.446,91.965 0.447,-20.005 0.446,-89.277 0.447,16.434 0.446,66.6 0.446,-63.276 0.447,-3.613 0.446,54.436 0.447,-93.265 0.446,97.308 0.446,30.174 0.447,-0.854 0.446,-65.382 0.447,71.431 0.446,-24.176 0.446,-42.961 0.447,1.543 0.446,-19.049 0.447,22.207 0.446,45.804 0.446,-79.468 0.447,32.912 0.446,120.819 0.447,-49.067 0.446,-32.144 0.446,-43.929 0.447,104.486 0.446,-129.932 0.447,66.555 0.446,-30.434 0.446,176.51 0.447,-171.304 0.446,24.901 0.447,-46.346 0.446,29.502 0.446,-1.774 0.893,-18.687 0.447,-22.431 0.446,63.989 0.446,-20.222 0.447,38.565 0.446,-91.145 0.447,96.557 0.446,1.449 0.446,-127.033 0.447,38.735 0.446,129.701 0.447,-140.862 0.446,6.734 0.446,112.969 0.447,-60.887 0.446,-35.415 0.447,-0.3 0.446,81.453 0.893,-115.252 0.446,-8.769 0.447,18.448 0.446,8.685 0.446,37.581 0.447,-4.418 0.446,43.699 0.447,-49.213 0.446,48.897 0.446,34.769 0.447,-83.35 0.446,-10.021 0.447,-31.853 0.446,23.553 0.446,-54.4 0.447,81.639 0.446,57.063 0.447,-61.515 0.446,-18.859 0.446,6.606 0.447,15.47 0.446,21.052 0.447,37.033 0.446,-21.43 0.446,-51.689 0.447,-0.174 0.446,36.879 0.447,-53.547 0.446,63.566 0.446,-18.917 0.447,9.371 0.446,5.3 0.447,-29.036 0.446,-46.803 0.446,65.825 0.447,-9.604 0.446,-41.529 0.447,-3.188 0.446,3.907 0.446,-13.652 0.447,39.54 0.446,5.528 0.447,29.486 0.892,24.205 0.447,-20.213 0.446,-52.21 0.447,53.003 0.446,-42.167 0.446,-30.112 0.447,86.356 0.446,-41.504 0.447,-11.856 0.446,57.52 0.446,-48.21 0.447,-87.617 0.446,149.924 0.893,-74.662 0.446,-5.989 0.447,-18.354 0.446,87.954 0.447,27.525 0.446,-112.707 0.446,118.453 0.447,-79.117 0.446,21.172 0.447,-48.324 0.446,-1.876 0.893,54.73 0.893,-28.303 0.446,-60.261 0.446,97.358 0.447,10.379 0.446,-56.501 0.893,45.195 0.446,-38.037 0.447,-96.586 0.446,130.034 0.447,-32.804 0.446,61.322 0.446,-23.883 0.447,-66.679 0.446,96.922 0.893,-31.069 0.446,16.796 0.447,-56.158 0.446,33.604 0.447,-33.273 0.446,-60.44 0.446,11.318 0.447,15.295 0.446,8.213 0.447,1.898 0.446,68.333 0.446,-54.979 0.447,50.724 0.446,-116.762 0.447,153.873 0.446,-35.119 0.446,5.696 0.447,-82.02 0.446,-20.769 0.447,74.499 0.446,-40.168 0.893,27.223 0.446,29.018 0.447,-36.007 0.446,88.384 0.446,-69.871 0.447,-7.508 0.446,28.73 0.447,-93.426 0.446,48.84 0.446,19.519 0.447,29.097 0.446,-33.268 0.447,37.214 0.446,-26.671 0.446,-19.491 0.447,48.636 0.446,-51.281 0.447,58.298 0.446,-100.417 0.446,43.79 0.447,58.618 0.446,-76.938 0.447,50.567 0.446,-27.111 0.446,-11.801 0.447,-26.189 0.446,35.047 0.447,-59.592 0.446,66.52 0.446,22.808 0.447,-35.12 0.446,31.579 0.447,-96.054 0.446,15.473 0.446,0.968 0.447,24.277 0.446,82.794 0.447,-54.437 0.446,9.491 0.446,-0.141 0.447,47.266 0.446,-3.874 0.447,-66.996 0.446,69.586 0.446,0.666 0.893,-56.999 0.447,106.159 0.446,-150.621 0.446,35.026 0.447,19.173 0.446,-25.199 0.447,16.98 0.446,-38.405 0.446,-70.353 0.447,60.659 0.446,-51.632 0.447,125.76 0.446,-9.78 0.446,45.342 0.893,-81.556 0.447,42.637 0.446,66.129 0.446,-105.65 0.447,78.633 0.446,-84.467 0.447,12.022 0.446,35.765 0.446,-46.881 0.447,58.801 0.446,26.687 0.447,-22.757 0.446,-34.389 0.446,-46.182 0.447,67.387 0.446,-39.893 0.447,25.369 0.446,47.468 0.446,-43.913 0.447,-25.598 0.446,31.379 0.447,-60.838 0.446,99.308 0.446,-110.83 0.893,61.01 0.447,7.216 0.446,30.342 0.446,-57.516 0.447,-37.35 0.446,100.807 0.447,-3.275 0.446,-25.79 0.446,-40.216 0.447,3.726 0.446,-16.955 0.447,-27.499 0.446,51.416 0.446,-62.516 0.447,90.441 0.446,-43.834 0.447,66.712 0.446,-118.862 0.446,30.9 0.447,13.315 0.446,7.64 0.447,74.164 0.446,22.814 0.893,-56.159 0.446,-44.743 0.447,-7.329 0.446,45.909 0.446,14.122 0.447,3.403 0.446,7.966 0.447,-89.663 0.446,91.88 0.446,-103.879 0.447,139.778 0.446,-29.272 0.447,19.93 0.446,-98.4 0.446,3.982 0.893,108.281 0.447,-29.99 0.446,-145.837 0.446,43.054 0.447,19.359 0.446,66.886 0.447,-2.853 0.446,-11.105 0.446,-77.793 0.447,33.052 0.446,-10.708 0.893,84.872 0.446,5.914 0.447,-29.148 0.446,-47.477 0.447,66.745 0.446,7.899 0.446,-63.47 0.447,12.928 0.446,-67.294 0.447,-1.957 0.446,159.016 0.446,-172.724 0.447,71.177 0.446,-29.401 0.447,62.547 0.446,10.469 0.446,20.344 0.447,-10.05 0.446,-56.45 0.447,10.337 0.446,30.162 0.446,-45.847 0.447,-66.028 0.446,-1.779 0.447,83.282 0.446,-123.1913 0.446,115.4793 0.447,-84.859 0.446,-17.071 0.447,165.079 0.446,-64.183 0.446,48.302 0.447,-73.319 0.446,34.263 0.447,-88.671 0.446,49.2 0.893,45.432 0.446,56.226 0.447,-70.466 0.446,-46.454 0.446,125.494 0.447,-74.601 0.446,-9.101 0.447,58.65 0.446,-50.294 0.446,-13.647 0.447,-19.783 0.446,12.191 0.447,-39.363 0.446,81.19 0.446,5.551 0.447,-62.368 0.446,44.483 0.447,8.623 0.446,-71.85 0.446,61.941 0.447,-15.464 0.446,75.849 0.447,-55.423 0.446,-19.523 0.446,10.198 0.447,-51.322 0.446,92.552 0.447,-113.59 0.446,114.31 0.446,26.253 0.447,-116.472 0.446,56.555 0.447,-55.146 0.446,63.07 0.446,25.637 0.447,-72.406 0.446,54.783 0.447,-67.546 0.446,-0.297 0.446,-38.898 0.447,38.601 0.893,129.653 0.892,-59.586 0.893,-89.876 0.447,70.857 0.446,20.753 0.446,-15.576 0.447,-75.333 0.446,51.333 0.447,-63.665 0.446,109.25 0.446,-48.595 0.447,-32.714 0.446,85.483 0.447,-47.553 0.446,-9.472 0.446,72.462 0.447,-30.507 0.446,-9.996 0.447,-65.433 0.446,89.176 0.446,-62.704 0.447,-5.404 0.446,74.262 0.447,-39.05 0.446,-12.768 0.446,65.186 0.447,-99.771 0.446,62.617 0.447,-45.211 0.446,62.495 0.446,24.425 0.447,-85.906 0.446,37.134 0.447,13.003 0.446,-43.734 0.446,42.889 0.447,-77.562 0.446,95.412 0.447,7.35 0.446,-37.429 0.446,-70.595 0.447,53.167 0.446,68.846 0.447,-74.22 0.446,-5.129 0.446,65.541 0.447,-86.771 0.446,72.877 0.447,9.105 0.446,-79.474 0.446,-39.459 0.447,170.78 0.893,-141.844 0.446,106.855 0.446,-85.09 0.447,41.547 0.446,-6.503 0.447,-9.264 0.446,83 0.446,-89.158 0.447,-29.277 0.446,0.621 0.447,84.3 0.446,-23.432 0.893,-67.022 0.446,51.23 0.447,-19.734 0.446,19.635 0.446,-21.699 0.447,-53.942 0.446,80.113 0.447,-108.239 0.446,56.211 0.446,-0.169 0.447,68.031 0.446,-38.83 0.447,28.861 0.892,-49.948 0.447,4.176 0.446,6.194 0.893,60.569 0.446,1.941 0.447,-83.965 0.446,51.881 0.447,38.872 0.446,-7.065 0.446,-40.716 0.447,-56.909 0.446,152.095 0.447,-102.715 0.446,-38.737 0.446,58.976 0.893,27.238 0.447,42.31 0.446,-103.125 0.446,26.919 0.447,-1.806 0.446,-11.855 0.447,14.014 0.446,39.127 0.446,-90.507 0.447,-4.632 0.446,12.954 0.447,117.029 0.446,-138.669 0.446,68.107 0.447,10.314 0.446,13.802 0.447,-65.413 0.446,105.485 0.446,-102.546 0.447,4.802 0.446,25.038 0.447,55.937 0.446,-81.206 0.446,5.621 0.447,-1.068 0.446,57.15 0.447,-7.557 0.446,-72.31 0.446,98.389 0.447,5.784 0.446,-148.786 0.447,68.135 0.446,25.242 0.446,-36.382 0.893,46.815 0.447,-1.191 0.446,-15.079 0.446,-41.459 0.447,48.741 0.446,21.224 0.447,14.221 0.446,-31.786 0.446,-74.151 0.447,141.981 0.446,-55.053 0.893,43.349 0.446,-119.019 0.447,73.15 0.446,54.339 0.447,-78.232 0.446,11.6 0.446,-3.971 0.447,107.615 0.446,-150.099 0.447,-23.308 0.446,86.144 0.446,-37.551 0.447,58.5 0.446,-13.571 0.447,-19.177 0.446,34.642 0.446,-58.81 0.447,46.196 0.446,-4.278 0.447,-39.825 0.446,11.096 0.446,-20.677 0.893,48.404 0.447,-20.745 0.446,-33.211 0.446,-42.99 0.447,69.638 0.446,13.207 0.447,-2.163 0.446,-1.443 0.446,-11.151 0.447,14.5 0.446,-24.09 0.447,-1.921 0.446,-36.455 0.446,91.013 0.447,-90.773 0.446,41.318 0.447,-63.718 0.446,66.607 0.446,-46.991 0.447,60.358 0.446,-29.919 0.447,53.754 0.446,-10.2 0.446,-42.507 0.447,55.225 0.446,11.57 0.447,-37.841 0.446,-64.528 0.446,27.564 0.447,51.313 0.446,-33.701 0.447,-14.49 0.446,98.711 0.446,-99.619 0.447,46.234 0.446,-62.36 0.447,31.023 0.446,-74.062 0.446,164.413 0.447,13.643 0.446,2.524 0.447,-92.901 0.446,30.234 0.446,-16.892 0.447,-60.698 0.446,46.217 0.447,-14.76 0.446,36.065 0.446,-72.588 0.447,59.198 0.446,20.758 0.447,-36.62 0.446,57.984 0.446,-19.373 0.447,-60.701 0.446,0.074 0.447,11.519 0.446,5.742 0.446,107.227 0.447,-174.53 0.446,-13.095 0.447,49.784 0.446,32.704 0.446,62.922 0.893,-142.02 0.447,130.207 0.446,-75.031 0.446,74.253 0.447,-75.58 0.446,-27.282 0.447,99.534 0.446,-27.496 0.446,-3.34 0.447,-69.009 0.893,55.541 0.446,-30.196 0.446,42.935 0.447,-46.449 0.446,64.163 0.447,-33.865 0.446,15.425 0.446,-45.766 0.447,4.329 0.446,82.786 0.893,-115.421 0.893,74.938 0.446,-8.692 0.447,104.39 0.446,-123.672 0.446,-15.859 0.447,59.872 0.893,15.358 0.446,-89.343 0.446,-18.356 0.893,149.376 0.447,-110.211 0.446,-11.547 0.893,34.601 0.446,-94.713 0.447,65.024 0.446,-7.866 0.446,21.493 0.447,41.272 0.446,-6.975 0.447,2.3 0.446,87.803 0.446,-197.956 0.447,107.736 0.446,-84.613 0.447,132.625 0.446,-98.24 0.446,35.742 0.447,-47.453 0.893,83.429 0.446,69.318 0.446,-110.324 0.447,-13.502 0.446,37.997 0.447,-50.113 0.446,76.389 0.446,-99.135 0.447,32.875 0.446,21.958 0.447,-93.334 0.446,87.442 0.446,26.068 0.447,-73.657 0.446,42.383 0.447,-50.653 0.446,69.494 0.446,-104.785 0.447,195.863 0.893,-106.935 0.446,-15.872 0.446,8.704 0.447,41.928 0.446,-21.706 0.447,-11.413 0.446,-50.014 0.446,71.371 0.447,-21.7 0.446,59.011 0.447,-133.947 0.446,-0.89 0.893,56.28 0.446,-11.676 0.447,49.413 0.446,2.916 0.446,-32.129 0.447,12.227 0.446,-33.09 0.447,88.869 0.446,-73.019 0.446,63.034 0.447,-78.824 0.446,-24.319 0.447,31.055 0.446,-0.354 0.446,16.058 0.447,-1.922 0.446,65.128 0.447,-66.109 0.446,59.13 0.446,-126.859 0.447,170.488 0.446,-136.092 0.447,77.109 0.446,-84.079 1.339,104.089 0.447,-85.825 0.446,30.198 0.446,-14.788 0.447,17.73 0.446,56.67 0.447,-70.481 0.446,11.527 0.446,83.47 0.447,-31.971 0.446,-21.199 0.893,-59.3 0.446,87.829 0.447,-14.018 0.446,-58.056 0.447,2.099 0.446,-50.568 0.446,105.655 0.447,-29.224 0.446,41.555 0.447,-7.696 0.446,-74.984 0.446,71.597 0.447,-98.76 0.446,94.739 0.447,-75.203 0.446,109.287 0.446,-105.28 0.447,59.535 0.893,-49.401 0.446,-52.024 0.446,95.491 0.447,-45.858 0.446,9.947 0.447,65.53 0.446,6.333 0.446,-126.778 0.447,78.204 0.893,-32.387 0.446,22.242 0.446,9.299 0.447,37.433 0.446,-19.909 0.447,-13.242 0.446,10.625 0.446,0.932 0.893,-51.477 0.447,47.963 0.446,-60.582 0.446,99.27 0.447,-17.069 0.446,23.07 0.447,13.395 0.446,-169.318 0.446,60.953 0.447,0.862 0.446,-19.845 0.447,62.947 0.446,-19.13 0.446,54.183 0.447,-27.856 0.446,-77.172 0.447,11.603 0.446,16.272 0.446,59.336 0.447,-29.842 0.446,112.974 0.447,-77.33 0.446,-57.707 0.446,17.602 0.447,-28.251 0.446,10.702 0.447,3.639 0.446,-22.117 0.446,57.873 0.447,15.697 0.446,4.932 0.447,-95.154 0.446,-10.375 0.446,87.387 0.893,-35.499 0.447,-26.81 0.892,62.319 0.447,1.442 0.446,-63.015 0.893,61.24 0.446,-13.495 0.447,-31.51 0.446,74.123 0.893,49.292 0.446,-38.83 0.447,-8.051 0.446,-37.678 0.447,-68.468 0.446,-22.325 0.446,78.19 0.447,138.375 0.446,-155.243 0.447,-17.217 0.446,63.656 0.446,-43.539 0.447,19.545 0.446,-12.675 0.447,-1.289 0.446,42.838 v 0"
               style="fill:none;fill-opacity:1;stroke:#0000ff;stroke-width:0.5"
               id="path1017" />
          </g>
          <g
             id="matplotlib.axis_1"
             style="fill:none;fill-opacity:1">
            <g
               id="xtick_1"
               style="fill:none;fill-opacity:1">
              <g
                 id="line2d_2"
                 style="fill:none;fill-opacity:1">
                <defs
                   id="defs1021">
                  <path
                     d="M 0,0 V -4"
                     id="path2089"
                     style="stroke:#000000;stroke-width:0.5;stroke-linecap:butt" />
                </defs>
                <g
                   id="g1025"
                   style="fill:none;fill-opacity:1">
                  <use
                     style="fill:none;fill-opacity:1;stroke:#000000;stroke-width:0.5;stroke-linecap:butt"
                     x="72"
                     xlink:href="#mcb557df647"
                     y="388.79999"
                     id="use1023"
                     width="100%"
                     height="100%" />
                </g>
              </g>
              <g
                 id="line2d_3"
                 style="fill:none;fill-opacity:1">
                <defs
                   id="defs1029">
                  <path
                     d="M 0,0 V 4"
                     id="path2095"
                     style="stroke:#000000;stroke-width:0.5;stroke-linecap:butt" />
                </defs>
                <g
                   id="g1033"
                   style="fill:none;fill-opacity:1">
                  <use
                     style="fill:none;fill-opacity:1;stroke:#000000;stroke-width:0.5;stroke-linecap:butt"
                     x="72"
                     xlink:href="#mdad270ee8e"
                     y="43.200001"
                     id="use1031"
                     width="100%"
                     height="100%" />
                </g>
              </g>
              <g
                 id="text_1"
                 style="fill:none;fill-opacity:1">
                <!-- 0 -->
                <defs
                   id="defs1037">
                  <path
                     d="m 31.7812,66.4062 q -7.6093,0 -11.4531,-7.5 Q 16.5,51.4219 16.5,36.375 q 0,-14.9844 3.8281,-22.4844 3.8438,-7.49998 11.4531,-7.49998 7.6719,0 11.5,7.49998 3.8438,7.5 3.8438,22.4844 0,15.0469 -3.8438,22.5312 -3.8281,7.5 -11.5,7.5 m 0,7.8126 q 12.2657,0 18.7344,-9.7032 6.4688,-9.6875 6.4688,-28.1406 0,-18.4062 -6.4688,-28.10938 -6.4687,-9.6875 -18.7344,-9.6875 -12.25,0 -18.7187,9.6875 -6.46875,9.70318 -6.46875,28.10938 0,18.4531 6.46875,28.1406 6.4687,9.7032 18.7187,9.7032"
                     id="path2101" />
                </defs>
                <g
                   transform="matrix(0.12,0,0,-0.12,68.976562,401.70625)"
                   id="g1041"
                   style="fill:none;fill-opacity:1">
                  <use
                     xlink:href="#BitstreamVeraSans-Roman-30"
                     id="use1039"
                     x="0"
                     y="0"
                     width="100%"
                     height="100%"
                     style="fill:none;fill-opacity:1" />
                </g>
              </g>
            </g>
            <g
               id="xtick_2"
               style="fill:none;fill-opacity:1">
              <g
                 id="line2d_4"
                 style="fill:none;fill-opacity:1">
                <g
                   id="g1047"
                   style="fill:none;fill-opacity:1">
                  <use
                     style="fill:none;fill-opacity:1;stroke:#000000;stroke-width:0.5;stroke-linecap:butt"
                     x="161.28"
                     xlink:href="#mcb557df647"
                     y="388.79999"
                     id="use1045"
                     width="100%"
                     height="100%" />
                </g>
              </g>
              <g
                 id="line2d_5"
                 style="fill:none;fill-opacity:1">
                <g
                   id="g1052"
                   style="fill:none;fill-opacity:1">
                  <use
                     style="fill:none;fill-opacity:1;stroke:#000000;stroke-width:0.5;stroke-linecap:butt"
                     x="161.28"
                     xlink:href="#mdad270ee8e"
                     y="43.200001"
                     id="use1050"
                     width="100%"
                     height="100%" />
                </g>
              </g>
              <g
                 id="text_2"
                 style="fill:none;fill-opacity:1">
                <!-- 200 -->
                <defs
                   id="defs1056">
                  <path
                     d="M 19.1875,8.29688 H 53.6094 V 0 H 7.32812 V 8.29688 Q 12.9375,14.1094 22.625,23.8906 q 9.7031,9.7969 12.1875,12.6406 4.7344,5.3126 6.6094,9 1.8906,3.6876 1.8906,7.25 0,5.8126 -4.0781,9.4688 -4.0782,3.6719 -10.625,3.6719 -4.6406,0 -9.7969,-1.6094 -5.1406,-1.6094 -11,-4.8906 v 9.9687 q 5.9531,2.3906 11.125,3.6094 5.1875,1.2188 9.4844,1.2188 11.3281,0 18.0625,-5.6719 6.7344,-5.6563 6.7344,-15.125 0,-4.5 -1.6876,-8.5313 Q 49.8594,40.875 45.4062,35.4062 44.1875,33.9844 37.6406,27.2188 31.1094,20.4531 19.1875,8.29688"
                     id="path2114" />
                </defs>
                <g
                   transform="matrix(0.12,0,0,-0.12,150.66562,401.70625)"
                   id="g1064"
                   style="fill:none;fill-opacity:1">
                  <use
                     xlink:href="#BitstreamVeraSans-Roman-32"
                     id="use1058"
                     x="0"
                     y="0"
                     width="100%"
                     height="100%"
                     style="fill:none;fill-opacity:1" />
                  <use
                     x="63.623047"
                     xlink:href="#BitstreamVeraSans-Roman-30"
                     id="use1060"
                     y="0"
                     width="100%"
                     height="100%"
                     style="fill:none;fill-opacity:1" />
                  <use
                     x="127.24609"
                     xlink:href="#BitstreamVeraSans-Roman-30"
                     id="use1062"
                     y="0"
                     width="100%"
                     height="100%"
                     style="fill:none;fill-opacity:1" />
                </g>
              </g>
            </g>
            <g
               id="xtick_3"
               style="fill:none;fill-opacity:1">
              <g
                 id="line2d_6"
                 style="fill:none;fill-opacity:1">
                <g
                   id="g1070"
                   style="fill:none;fill-opacity:1">
                  <use
                     style="fill:none;fill-opacity:1;stroke:#000000;stroke-width:0.5;stroke-linecap:butt"
                     x="250.56"
                     xlink:href="#mcb557df647"
                     y="388.79999"
                     id="use1068"
                     width="100%"
                     height="100%" />
                </g>
              </g>
              <g
                 id="line2d_7"
                 style="fill:none;fill-opacity:1">
                <g
                   id="g1075"
                   style="fill:none;fill-opacity:1">
                  <use
                     style="fill:none;fill-opacity:1;stroke:#000000;stroke-width:0.5;stroke-linecap:butt"
                     x="250.56"
                     xlink:href="#mdad270ee8e"
                     y="43.200001"
                     id="use1073"
                     width="100%"
                     height="100%" />
                </g>
              </g>
              <g
                 id="text_3"
                 style="fill:none;fill-opacity:1">
                <!-- 400 -->
                <defs
                   id="defs1079">
                  <path
                     d="M 37.7969,64.3125 12.8906,25.3906 h 24.9063 z m -2.5938,8.5937 H 47.6094 V 25.3906 H 58.0156 V 17.1875 H 47.6094 V 0 H 37.7969 V 17.1875 H 4.89062 v 9.5156 z"
                     id="path2129" />
                </defs>
                <g
                   transform="matrix(0.12,0,0,-0.12,239.79937,401.70625)"
                   id="g1087"
                   style="fill:none;fill-opacity:1">
                  <use
                     xlink:href="#BitstreamVeraSans-Roman-34"
                     id="use1081"
                     x="0"
                     y="0"
                     width="100%"
                     height="100%"
                     style="fill:none;fill-opacity:1" />
                  <use
                     x="63.623047"
                     xlink:href="#BitstreamVeraSans-Roman-30"
                     id="use1083"
                     y="0"
                     width="100%"
                     height="100%"
                     style="fill:none;fill-opacity:1" />
                  <use
                     x="127.24609"
                     xlink:href="#BitstreamVeraSans-Roman-30"
                     id="use1085"
                     y="0"
                     width="100%"
                     height="100%"
                     style="fill:none;fill-opacity:1" />
                </g>
              </g>
            </g>
            <g
               id="xtick_4"
               style="fill:none;fill-opacity:1">
              <g
                 id="line2d_8"
                 style="fill:none;fill-opacity:1">
                <g
                   id="g1093"
                   style="fill:none;fill-opacity:1">
                  <use
                     style="fill:none;fill-opacity:1;stroke:#000000;stroke-width:0.5;stroke-linecap:butt"
                     x="339.84"
                     xlink:href="#mcb557df647"
                     y="388.79999"
                     id="use1091"
                     width="100%"
                     height="100%" />
                </g>
              </g>
              <g
                 id="line2d_9"
                 style="fill:none;fill-opacity:1">
                <g
                   id="g1098"
                   style="fill:none;fill-opacity:1">
                  <use
                     style="fill:none;fill-opacity:1;stroke:#000000;stroke-width:0.5;stroke-linecap:butt"
                     x="339.84"
                     xlink:href="#mdad270ee8e"
                     y="43.200001"
                     id="use1096"
                     width="100%"
                     height="100%" />
                </g>
              </g>
              <g
                 id="text_4"
                 style="fill:none;fill-opacity:1">
                <!-- 600 -->
                <defs
                   id="defs1102">
                  <path
                     d="m 33.0156,40.375 q -6.6406,0 -10.5312,-4.5469 -3.875,-4.5312 -3.875,-12.4375 0,-7.8594 3.875,-12.4375 3.8906,-4.56248 10.5312,-4.56248 6.6406,0 10.5156,4.56248 3.875,4.5781 3.875,12.4375 0,7.9063 -3.875,12.4375 -3.875,4.5469 -10.5156,4.5469 m 19.5782,30.9219 v -8.9844 q -3.7188,1.75 -7.5,2.6719 -3.7813,0.9375 -7.5,0.9375 -9.7657,0 -14.9219,-6.5938 -5.1407,-6.5937 -5.875,-19.9219 2.875,4.25 7.2187,6.5157 4.3594,2.2656 9.5782,2.2656 10.9843,0 17.3593,-6.6719 6.375,-6.6562 6.375,-18.125 0,-11.2344 -6.6406,-18.03122 -6.6406,-6.78126 -17.6719,-6.78126 -12.6562,0 -19.3437,9.6875 -6.68752,9.70318 -6.68752,28.10938 0,17.2812 8.20312,27.5625 8.2031,10.2813 22.0156,10.2813 3.7188,0 7.5,-0.7344 3.7813,-0.7344 7.8907,-2.1875"
                     id="path2144" />
                </defs>
                <g
                   transform="matrix(0.12,0,0,-0.12,329.205,401.70625)"
                   id="g1110"
                   style="fill:none;fill-opacity:1">
                  <use
                     xlink:href="#BitstreamVeraSans-Roman-36"
                     id="use1104"
                     x="0"
                     y="0"
                     width="100%"
                     height="100%"
                     style="fill:none;fill-opacity:1" />
                  <use
                     x="63.623047"
                     xlink:href="#BitstreamVeraSans-Roman-30"
                     id="use1106"
                     y="0"
                     width="100%"
                     height="100%"
                     style="fill:none;fill-opacity:1" />
                  <use
                     x="127.24609"
                     xlink:href="#BitstreamVeraSans-Roman-30"
                     id="use1108"
                     y="0"
                     width="100%"
                     height="100%"
                     style="fill:none;fill-opacity:1" />
                </g>
              </g>
            </g>
            <g
               id="xtick_5"
               style="fill:none;fill-opacity:1">
              <g
                 id="line2d_10"
                 style="fill:none;fill-opacity:1">
                <g
                   id="g1116"
                   style="fill:none;fill-opacity:1">
                  <use
                     style="fill:none;fill-opacity:1;stroke:#000000;stroke-width:0.5;stroke-linecap:butt"
                     x="429.12"
                     xlink:href="#mcb557df647"
                     y="388.79999"
                     id="use1114"
                     width="100%"
                     height="100%" />
                </g>
              </g>
              <g
                 id="line2d_11"
                 style="fill:none;fill-opacity:1">
                <g
                   id="g1121"
                   style="fill:none;fill-opacity:1">
                  <use
                     style="fill:none;fill-opacity:1;stroke:#000000;stroke-width:0.5;stroke-linecap:butt"
                     x="429.12"
                     xlink:href="#mdad270ee8e"
                     y="43.200001"
                     id="use1119"
                     width="100%"
                     height="100%" />
                </g>
              </g>
              <g
                 id="text_5"
                 style="fill:none;fill-opacity:1">
                <!-- 800 -->
                <defs
                   id="defs1125">
                  <path
                     d="m 31.7812,34.625 q -7.0312,0 -11.0624,-3.7656 -4.0157,-3.7656 -4.0157,-10.3438 0,-6.5937 4.0157,-10.3594 4.0312,-3.76558 11.0624,-3.76558 7.0313,0 11.0782,3.78128 4.0625,3.7969 4.0625,10.3437 0,6.5782 -4.0313,10.3438 -4.0156,3.7656 -11.1094,3.7656 m -9.8593,4.1875 Q 15.5781,40.375 12.0312,44.7188 8.5,49.0781 8.5,55.3281 q 0,8.7344 6.2188,13.8125 6.2343,5.0782 17.0624,5.0782 10.8907,0 17.0938,-5.0782 6.2031,-5.0781 6.2031,-13.8125 0,-6.25 -3.5469,-10.6093 Q 48,40.375 41.7031,38.8125 q 7.125,-1.6563 11.0938,-6.5 3.9843,-4.8281 3.9843,-11.7969 0,-10.60935 -6.4687,-16.28122 -6.4687,-5.65626 -18.5313,-5.65626 -12.0468,0 -18.5312,5.65626 -6.46875,5.67187 -6.46875,16.28122 0,6.9688 3.99995,11.7969 4.0157,4.8437 11.1407,6.5 m -3.6094,15.5781 q 0,-5.6562 3.5313,-8.8281 3.5468,-3.1719 9.9374,-3.1719 6.3594,0 9.9376,3.1719 3.5937,3.1719 3.5937,8.8281 0,5.6719 -3.5937,8.8438 -3.5782,3.1718 -9.9376,3.1718 -6.3906,0 -9.9374,-3.1718 -3.5313,-3.1719 -3.5313,-8.8438"
                     id="path2159" />
                </defs>
                <g
                   transform="matrix(0.12,0,0,-0.12,418.47281,401.70625)"
                   id="g1133"
                   style="fill:none;fill-opacity:1">
                  <use
                     xlink:href="#BitstreamVeraSans-Roman-38"
                     id="use1127"
                     x="0"
                     y="0"
                     width="100%"
                     height="100%"
                     style="fill:none;fill-opacity:1" />
                  <use
                     x="63.623047"
                     xlink:href="#BitstreamVeraSans-Roman-30"
                     id="use1129"
                     y="0"
                     width="100%"
                     height="100%"
                     style="fill:none;fill-opacity:1" />
                  <use
                     x="127.24609"
                     xlink:href="#BitstreamVeraSans-Roman-30"
                     id="use1131"
                     y="0"
                     width="100%"
                     height="100%"
                     style="fill:none;fill-opacity:1" />
                </g>
              </g>
            </g>
            <g
               id="xtick_6"
               style="fill:none;fill-opacity:1">
              <g
                 id="line2d_12"
                 style="fill:none;fill-opacity:1">
                <g
                   id="g1139"
                   style="fill:none;fill-opacity:1">
                  <use
                     style="fill:none;fill-opacity:1;stroke:#000000;stroke-width:0.5;stroke-linecap:butt"
                     x="518.40002"
                     xlink:href="#mcb557df647"
                     y="388.79999"
                     id="use1137"
                     width="100%"
                     height="100%" />
                </g>
              </g>
              <g
                 id="line2d_13"
                 style="fill:none;fill-opacity:1">
                <g
                   id="g1144"
                   style="fill:none;fill-opacity:1">
                  <use
                     style="fill:none;fill-opacity:1;stroke:#000000;stroke-width:0.5;stroke-linecap:butt"
                     x="518.40002"
                     xlink:href="#mdad270ee8e"
                     y="43.200001"
                     id="use1142"
                     width="100%"
                     height="100%" />
                </g>
              </g>
              <g
                 id="text_6"
                 style="fill:none;fill-opacity:1">
                <!-- 1000 -->
                <defs
                   id="defs1148">
                  <path
                     d="M 12.4062,8.29688 H 28.5156 V 63.9219 L 10.9844,60.4062 v 8.9844 l 17.4375,3.5156 h 9.8593 V 8.29688 H 54.3906 V 0 H 12.4062 Z"
                     id="path2174" />
                </defs>
                <g
                   transform="matrix(0.12,0,0,-0.12,504.1875,401.70625)"
                   id="g1158"
                   style="fill:none;fill-opacity:1">
                  <use
                     xlink:href="#BitstreamVeraSans-Roman-31"
                     id="use1150"
                     x="0"
                     y="0"
                     width="100%"
                     height="100%"
                     style="fill:none;fill-opacity:1" />
                  <use
                     x="63.623047"
                     xlink:href="#BitstreamVeraSans-Roman-30"
                     id="use1152"
                     y="0"
                     width="100%"
                     height="100%"
                     style="fill:none;fill-opacity:1" />
                  <use
                     x="127.24609"
                     xlink:href="#BitstreamVeraSans-Roman-30"
                     id="use1154"
                     y="0"
                     width="100%"
                     height="100%"
                     style="fill:none;fill-opacity:1" />
                  <use
                     x="190.86914"
                     xlink:href="#BitstreamVeraSans-Roman-30"
                     id="use1156"
                     y="0"
                     width="100%"
                     height="100%"
                     style="fill:none;fill-opacity:1" />
                </g>
              </g>
            </g>
          </g>
          <g
             id="matplotlib.axis_2"
             style="fill:none;fill-opacity:1">
            <g
               id="ytick_1"
               style="fill:none;fill-opacity:1">
              <g
                 id="line2d_14"
                 style="fill:none;fill-opacity:1">
                <defs
                   id="defs1164">
                  <path
                     d="M 0,0 H 4"
                     id="path2185"
                     style="stroke:#000000;stroke-width:0.5;stroke-linecap:butt" />
                </defs>
                <g
                   id="g1168"
                   style="fill:none;fill-opacity:1">
                  <use
                     style="fill:none;fill-opacity:1;stroke:#000000;stroke-width:0.5;stroke-linecap:butt"
                     x="72"
                     xlink:href="#mc8fcea1516"
                     y="216"
                     id="use1166"
                     width="100%"
                     height="100%" />
                </g>
              </g>
              <g
                 id="line2d_15"
                 style="fill:none;fill-opacity:1">
                <defs
                   id="defs1172">
                  <path
                     d="M 0,0 H -4"
                     id="path2191"
                     style="stroke:#000000;stroke-width:0.5;stroke-linecap:butt" />
                </defs>
                <g
                   id="g1176"
                   style="fill:none;fill-opacity:1">
                  <use
                     style="fill:none;fill-opacity:1;stroke:#000000;stroke-width:0.5;stroke-linecap:butt"
                     x="518.40002"
                     xlink:href="#m0d5b0a6425"
                     y="216"
                     id="use1174"
                     width="100%"
                     height="100%" />
                </g>
              </g>
              <g
                 id="text_7"
                 style="fill:none;fill-opacity:1">
                <!-- 0 -->
                <g
                   transform="matrix(0.12,0,0,-0.12,61.953125,220.36781)"
                   id="g1181"
                   style="fill:none;fill-opacity:1">
                  <use
                     xlink:href="#BitstreamVeraSans-Roman-30"
                     id="use1179"
                     x="0"
                     y="0"
                     width="100%"
                     height="100%"
                     style="fill:none;fill-opacity:1" />
                </g>
              </g>
            </g>
          </g>
          <g
             id="patch_3"
             style="fill:none;fill-opacity:1">
            <path
               d="M 72,43.2 H 518.4"
               style="fill:none;fill-opacity:1;stroke:#000000"
               id="path1186" />
          </g>
          <g
             id="patch_4"
             style="fill:none;fill-opacity:1">
            <path
               d="M 518.4,388.8 V 43.2"
               style="fill:none;fill-opacity:1;stroke:#000000"
               id="path1189" />
          </g>
          <g
             id="patch_5"
             style="fill:none;fill-opacity:1">
            <path
               d="M 72,388.8 H 518.4"
               style="fill:none;fill-opacity:1;stroke:#000000"
               id="path1192" />
          </g>
          <g
             id="patch_6"
             style="fill:none;fill-opacity:1">
            <path
               d="M 72,388.8 V 43.2"
               style="fill:none;fill-opacity:1;stroke:#000000"
               id="path1195" />
          </g>
        </g>
      </g>
    </g>
    <text
       xml:space="preserve"
       style="font-size:10.5833px;line-height:1.25;font-family:'Latin Modern Roman';-inkscape-font-specification:'Latin Modern Roman, Normal';stroke-width:0.264583"
       x="177.1597"
       y="38.629189"
       id="text2644"><tspan
         sodipodi:role="line"
         id="tspan2642"
         x="177.1597"
         y="38.629189"
         style="stroke-width:0.264583">Signal</tspan></text>
    <text
       xml:space="preserve"
       style="font-size:10.5833px;line-height:1.25;font-family:'Latin Modern Roman';-inkscape-font-specification:'Latin Modern Roman, Normal';stroke-width:0.264583"
       x="163.82698"
       y="79.160591"
       id="text2648"><tspan
         sodipodi:role="line"
         id="tspan2646"
         x="163.82698"
         y="79.160591"
         style="stroke-width:0.264583">Background</tspan></text>
    <g
       id="g3272"
       transform="translate(0,-5.7030864)">
      <rect
         style="fill:#b7d4e8;fill-opacity:1;stroke:#000000;stroke-width:0.57662;stroke-miterlimit:4;stroke-dasharray:none;stroke-opacity:1"
         id="rect886"
         width="67.95517"
         height="30.32847"
         x="78.239349"
         y="64.964966"
         ry="6.1802855" />
      <text
         xml:space="preserve"
         style="font-size:9.17222px;line-height:1.25;font-family:'Latin Modern Roman';-inkscape-font-specification:'Latin Modern Roman, Normal';text-align:center;text-anchor:middle;stroke-width:0.264583"
         x="112.14513"
         y="77.579323"
         id="text2803"><tspan
           sodipodi:role="line"
           id="tspan2801"
           x="112.14513"
           y="77.579323"
           style="font-size:9.17222px;stroke-width:0.264583">Convolutional</tspan><tspan
           sodipodi:role="line"
           x="112.14513"
           y="89.044601"
           style="font-size:9.17222px;stroke-width:0.264583"
           id="tspan2805">neural network</tspan></text>
    </g>
    <path
       style="fill:none;stroke:#000000;stroke-width:0.79375;stroke-linecap:butt;stroke-linejoin:miter;stroke-miterlimit:4;stroke-dasharray:none;stroke-opacity:1;marker-end:url(#marker2574)"
       d="m 147.63461,65.266467 28.05442,-7.375109"
       id="path1278"
       sodipodi:nodetypes="cc" />
    <path
       style="fill:none;stroke:#000000;stroke-width:0.79375;stroke-linecap:butt;stroke-linejoin:miter;stroke-miterlimit:4;stroke-dasharray:none;stroke-opacity:1;marker-end:url(#Arrow2Mend)"
       d="m 147.63106,83.612818 28.05442,7.375094"
       id="path1278-6"
       sodipodi:nodetypes="cc" />
  </g>
</svg>
